<svg id="Layer_1" data-name="Layer 1" xmlns="http://www.w3.org/2000/svg" viewBox="0 0 125.28 110.88"><defs><style>.cls-1{fill:#1385ba;}.cls-2{fill:#1485ba;}</style></defs><title>logo_small</title><path class="cls-1" d="M9.12,0a59.26,59.26,0,0,1,5.71,2.24,23.62,23.62,0,0,1,9.36,8.34C28.55,16.93,31.51,24,34.26,31.06c4.15,10.71,7.39,21.74,11.3,32.53A70.6,70.6,0,0,0,50.06,74a13.76,13.76,0,0,0,2.38,3.28c1.65,1.57,3.23,1.54,4.77-.14a15.41,15.41,0,0,0,2.69-4.49,127.34,127.34,0,0,0,5-15.47C66.39,52.06,67.65,46.86,70,42a10.11,10.11,0,0,1,1.69-2.6c1.49-1.58,3-1.53,4.31.2a19.87,19.87,0,0,1,2.83,6.17c2,6.27,3.25,12.75,5,19.09a40.27,40.27,0,0,0,2.76,7.76c1.85,3.6,4,3.75,6.24.36s3.27-7,4.42-10.68c1.83-5.94,3.23-12,5.31-17.88a24.89,24.89,0,0,1,2.84-6c1.89-2.73,4.1-3,6.48-.63s3.32,5.4,4,8.53c1.47,6.36,1.46,12.85,1.13,19.31a119.54,119.54,0,0,1-4.7,28,65.12,65.12,0,0,1-4.52,11.44,1.17,1.17,0,0,1,0,.11c-1.32,2.6-2.88,4.95-6,5.68h-1.44c-.08-.31-.36-.26-.58-.32a21.82,21.82,0,0,1-8.53-4.64c-3.92-3.36-6.4-7.7-8.34-12.4-2-4.92-3.2-10.11-4.81-15.16a14.58,14.58,0,0,0-2.19-4.75c-1.34-1.71-3-1.64-4.2.14A12.29,12.29,0,0,0,70.18,77c-1.2,3.76-2.33,7.54-3.57,11.29a25.3,25.3,0,0,1-4.33,8.47c-2.44,2.93-5.45,4-9.18,2.9a19.7,19.7,0,0,1-4.86-2.25A54.4,54.4,0,0,1,36.4,86.82,174.43,174.43,0,0,1,6,36.31C3.08,29,.66,21.41.38,13.42.19,8.12.54,2.83,6.25,0Z"/><path class="cls-2" d="M103.74,18.39a9.63,9.63,0,1,1,9.6,9.71A9.64,9.64,0,0,1,103.74,18.39Z"/></svg>